PathFileType	3	(X/Y/Z)	F:\ViconData\AntennenMessung\Messung1\Session1\ID05.trc
DataRate	CameraRate	NumFrames	NumMarkers	Units	OrigDataRate	OrigDataStartFrame	OrigNumFrames
120.0	120.0	4	70	mm	120.0	1163	1328	
Frame#	Time	Ashort			Along			Atop			A4			Bshort			Blong			Btop			B4			Cshort			Clong			Ctop			C4			Dshort			Dlong			Dtop			D4			Eshort			Elong			Etop			E4			Fshort			Flong			Ftop			F4			Gshort			Glong			Gtop			G4			Hshort			Hlong			Htop			H4			I1			I2			I3			I4			I5			WandAshort			WandAlong			WandAtop			WandA4			WandA15			WandBshort			WandB4			WandB5			WandBtop			WandBlong			WandCshort			WandClong			WandCtop			WandC4			WandC5			Acenter			Aantenna			Bcenter			Bantenna			Ccenter			Cantenna			Dcenter			Dantenna			Ecenter			Eantenna			Fcenter			Fantenna			Gcenter			Gantenna			Hcenter			Hantenna			Icenter			Iantenna			
		X1	Y1	Z1	X2	Y2	Z2	X3	Y3	Z3	X4	Y4	Z4	X5	Y5	Z5	X6	Y6	Z6	X7	Y7	Z7	X8	Y8	Z8	X9	Y9	Z9	X10	Y10	Z10	X11	Y11	Z11	X12	Y12	Z12	X13	Y13	Z13	X14	Y14	Z14	X15	Y15	Z15	X16	Y16	Z16	X17	Y17	Z17	X18	Y18	Z18	X19	Y19	Z19	X20	Y20	Z20	X21	Y21	Z21	X22	Y22	Z22	X23	Y23	Z23	X24	Y24	Z24	X25	Y25	Z25	X26	Y26	Z26	X27	Y27	Z27	X28	Y28	Z28	X29	Y29	Z29	X30	Y30	Z30	X31	Y31	Z31	X32	Y32	Z32	X33	Y33	Z33	X34	Y34	Z34	X35	Y35	Z35	X36	Y36	Z36	X37	Y37	Z37	X38	Y38	Z38	X39	Y39	Z39	X40	Y40	Z40	X41	Y41	Z41	X42	Y42	Z42	X43	Y43	Z43	X44	Y44	Z44	X45	Y45	Z45	X46	Y46	Z46	X47	Y47	Z47	X48	Y48	Z48	X49	Y49	Z49	X50	Y50	Z50	X51	Y51	Z51	X52	Y52	Z52	X53	Y53	Z53	X54	Y54	Z54	X55	Y55	Z55	X56	Y56	Z56	X57	Y57	Z57	X58	Y58	Z58	X59	Y59	Z59	X60	Y60	Z60	X61	Y61	Z61	X62	Y62	Z62	X63	Y63	Z63	X64	Y64	Z64	X65	Y65	Z65	X66	Y66	Z66	X67	Y67	Z67	X68	Y68	Z68	X69	Y69	Z69	X70	Y70	Z70	
1163	9.6833333	-1038.2396	214.44843	-1644.2471	-1109.3323	203.46051	-1599.5305	-1063.5674	173.11928	-1625.7372	-1054.141	262.09268	-1635.0048	-1352.9773	235.00987	1003.9097	-1281.2372	226.96648	1052.3492	-1323.0908	194.0706	1020.8818	-1284.6241	287.841	1052.7878	813.87744	187.65503	1209.6227	892.86493	178.8409	1178.8646	844.57465	145.08353	1198.3693	860.59503	292.51483	1167.1713	1115.7043	209.43068	-1401.562	1056.2106	193.98332	-1460.2057	1095.0514	162.22655	-1423.9161	1069.8568	238.56448	-1425.999	-1204.4606	1685.9429	-1563.3512	-1129.0994	1688.2938	-1606.3334	-1173.129	1724.3948	-1581.9983	-1133.5288	1581.0734	-1603.5802	-1239.698	1699.2472	1119.3362	-1309.3894	1698.8062	1071.8005	-1270.3621	1736.2294	1096.7354	-1244.7474	1593.7074	1106.653	988.90735	1664.314	1162.403	955.90765	1702.3547	1181.2511	922.71783	1662.1027	1215.0664	939.80743	1659.2947	1160.0209	999.21887	1668.5338	-1579.5405	1058.8982	1670.14	-1518.6716	1025.0677	1708.0087	-1551.1829	1059.3142	1672.1981	-1585.6686	-187.91051	1141.6528	506.40433	-185.49219	1144.1722	427.51016	-186.98555	1179.6858	475.31961	-224.19769	1141.4098	473.48618	-139.24834	1144.0656	475.12585																																														-1068.7839	209.72755	-1625.0349	-1074.2845	248.3306	-1624.2947	-1321.6956	231.50262	1025.0312	-1320.2518	270.23862	1029.3251	848.09283	183.83694	1196.299	851.61407	222.62236	1194.2269	1088.7582	202.43423	-1428.1228	1082.7596	240.76094	-1432.1328	-1171.9132	1686.9581	-1581.9144	-1170.6475	1647.9788	-1581.827	-1270.9858	1699.0491	1097.995	-1271.6396	1660.077	1099.3154	953.60919	1705.0044	1182.5637	973.02252	1731.9655	1162.1377	1026.5753	1669.2699	-1551.6385	1028.0918	1630.3022	-1552.0972	-186.92151	1142.683	474.13992	-186.85405	1103.7029	472.89722
1164	9.6916667	-1038.2625	214.46614	-1644.2708	-1109.3373	203.44382	-1599.5278	-1063.5066	173.03766	-1625.8007	-1054.1508	262.09146	-1635.0129	-1353.0167	234.76543	1003.933	-1281.2539	226.88226	1052.3339	-1322.9821	194.05827	1020.8105	-1284.5577	287.83017	1052.7274	813.85016	187.67323	1209.6206	892.83624	178.86409	1178.8712	844.58148	145.0694	1198.363	860.51819	292.27063	1167.4022	1115.7506	209.71388	-1401.7192	1056.1815	193.98523	-1460.2457	1095.0864	162.31024	-1423.9391	1069.8314	238.51833	-1425.9987	-1204.4668	1685.9369	-1563.349	-1129.0991	1688.2665	-1606.3193	-1173.0951	1724.2993	-1582.005	-1133.5325	1581.046	-1603.5411	-1239.696	1699.2367	1119.3263	-1309.3733	1698.7847	1071.7889	-1270.3079	1736.1384	1096.6991	-1244.7026	1593.7316	1106.5817	988.89136	1664.2577	1162.3939	955.90015	1702.3893	1181.2147	922.1394	1662.2562	1214.9512	939.83478	1659.2936	1160.0112	999.21417	1668.5171	-1579.5518	1058.8942	1670.146	-1518.6803	1025.0658	1707.9977	-1551.1909	1059.296	1672.1749	-1585.6837	-187.88318	1141.6058	506.45172	-185.50609	1144.1903	427.50626	-186.97363	1179.6609	475.32291	-224.19337	1141.4039	473.47409	-139.23308	1144.0782	475.11655																																														-1068.7454	209.73882	-1625.0812	-1074.2554	248.34021	-1624.3246	-1321.7345	231.32907	1025.0314	-1320.4382	270.05994	1029.4174	848.09888	183.85353	1196.2874	851.61652	222.63907	1194.2117	1088.718	202.57619	-1428.2784	1082.6598	240.88098	-1432.4065	-1171.8926	1686.9437	-1581.9209	-1170.6376	1647.964	-1581.8331	-1270.9546	1699.0338	1097.9999	-1271.634	1660.0637	1099.3662	953.41248	1705.2643	1182.6338	973.01276	1732.2195	1162.379	1026.5802	1669.2639	-1551.6393	1028.1039	1630.2964	-1552.0905	-186.90947	1142.6646	474.11365	-186.84187	1103.6854	472.8396
1165	9.7	-1038.2654	214.40492	-1644.2084	-1109.3199	203.49852	-1599.5459	-1063.5986	172.56174	-1625.5956	-1053.99	262.00919	-1635.0206	-1352.9689	234.76096	1003.8658	-1281.2666	226.87415	1052.3417	-1322.9865	194.05919	1020.8102	-1284.5782	287.8428	1052.7488	813.86481	187.68315	1209.6882	892.91992	178.81325	1178.9183	844.5741	145.12115	1198.3964	860.5343	292.29767	1167.4177	1115.7063	209.42577	-1401.5923	1056.2402	194.0376	-1460.2247	1095.0505	162.24446	-1423.8953	1069.8507	238.53725	-1425.9902	-1204.4435	1685.9335	-1563.3518	-1129.0955	1688.2755	-1606.3181	-1173.1128	1724.3948	-1581.9998	-1133.5016	1580.9944	-1603.5051	-1239.6375	1699.1815	1119.308	-1309.3534	1698.7726	1071.7854	-1270.2977	1736.1262	1096.6884	-1244.7563	1593.6266	1106.5477	988.85461	1664.2443	1162.3959	955.92297	1702.2892	1181.2767	922.73346	1662.1583	1215.1277	939.83563	1659.3165	1159.9951	999.21045	1668.5182	-1579.5349	1058.6064	1670.0466	-1518.7266	1025.0629	1708.0088	-1551.1956	1059.312	1672.1943	-1585.6869	-187.85635	1141.5953	506.51062	-185.48468	1144.1696	427.50388	-186.99042	1179.6523	475.33115	-224.30231	1141.566	473.50067	-139.24765	1144.0563	475.11963																																														-1068.8966	209.70319	-1624.9545	-1074.4033	248.30673	-1624.2883	-1321.7166	231.32338	1024.9946	-1320.3965	270.05762	1029.3441	848.12329	183.83937	1196.354	851.67859	222.62306	1194.3083	1088.8048	202.46443	-1428.1165	1082.8524	240.79694	-1432.1396	-1171.8977	1686.9449	-1581.9105	-1170.6331	1647.9656	-1581.8175	-1270.9493	1698.9978	1097.964	-1271.6333	1660.0267	1099.3026	953.58167	1704.994	1182.6189	972.98798	1731.9412	1162.168	1026.4862	1669.22	-1551.6106	1027.916	1630.2484	-1552.0277	-186.88428	1142.6504	474.12872	-186.77251	1103.6711	472.86206
1166	9.7083333	-1038.2389	214.416	-1644.2366	-1109.3287	203.4471	-1599.5332	-1063.6736	172.63583	-1625.4862	-1054.1124	262.08453	-1634.9912	-1352.9553	234.90971	1003.9152	-1281.3188	226.96831	1052.3984	-1322.9803	194.09818	1020.8055	-1284.7322	287.75769	1052.8792	813.85675	187.69127	1209.6161	892.91852	178.87068	1178.7922	844.69019	145.04356	1198.3875	860.65466	292.2337	1167.4236	1115.7621	209.71953	-1401.7113	1056.2117	194.06631	-1460.2976	1095.0692	162.27502	-1423.8784	1069.8435	238.51953	-1425.9725	-1204.4644	1685.9464	-1563.3468	-1129.1251	1688.2075	-1606.0736	-1173.1227	1724.4043	-1582.0039	-1133.5278	1581.022	-1603.5333	-1239.7155	1699.2784	1119.3375	-1309.422	1698.8807	1071.835	-1270.3031	1736.137	1096.6992	-1244.6962	1593.7084	1106.4667	988.88019	1664.2438	1162.4221	955.83118	1702.2883	1181.2109	922.68054	1662.0908	1215.0262	939.82178	1659.3407	1160.0116	999.19537	1668.5336	-1579.55	1058.833	1670.1261	-1518.689	1025.0656	1708.0084	-1551.1967	1059.2896	1672.1842	-1585.6882	-187.89946	1141.6653	506.46411	-185.48616	1144.158	427.55093	-186.98689	1179.6595	475.32819	-224.29686	1141.5604	473.50629	-139.2536	1144.0792	475.11752																																														-1069.0104	209.66808	-1624.8864	-1074.5725	248.26433	-1624.2614	-1321.7174	231.44675	1025.0569	-1320.4077	270.17465	1029.4653	848.1814	183.8618	1196.2339	851.66943	222.64586	1194.0822	1088.7748	202.62573	-1428.2616	1082.7982	240.9397	-1432.4235	-1171.8928	1686.9238	-1581.8188	-1170.6139	1647.9454	-1581.6263	-1270.9935	1699.1	1098.0226	-1271.7201	1660.1316	1099.4148	953.52728	1704.9404	1182.5208	972.93024	1731.8936	1162.0743	1026.5483	1669.2638	-1551.6359	1028.0397	1630.2949	-1552.0775	-186.91161	1142.6857	474.16254	-186.83224	1103.7051	472.93369
